<svg xmlns="http://www.w3.org/2000/svg" width="30" height="30" viewBox="0 0 30 30">
  <g id="Check-box-btn" transform="translate(7066 204)">
    <g id="single-drag-button" transform="translate(-15307 -86)">
      <g id="drop-field-btn" transform="translate(-70 12)">
        <g id="Group_867" data-name="Group 867" transform="translate(8406 -52)">
          <g id="Group_852" data-name="Group 852" transform="translate(19 20)">
            <g id="Group_850" data-name="Group 850" transform="translate(105 -13)">
              <g id="Group_848" data-name="Group 848" transform="translate(64 -3)">
                <g id="Group_844" data-name="Group 844" transform="translate(35 1)">
                  <g id="Group_842" data-name="Group 842" transform="translate(62 16)">
                    <g id="Group_839" data-name="Group 839" transform="translate(89 -3)">
                      <g id="Group_836" data-name="Group 836" transform="translate(68 -2)">
                        <g id="Group_834" data-name="Group 834" transform="translate(7225 47)">
                          <g id="Group_804" data-name="Group 804" transform="translate(0 23)">
                            <g id="Group_798" data-name="Group 798" transform="translate(0 -1)">
                              <rect id="Rectangle_220" data-name="Rectangle 220" width="30" height="30" transform="translate(-7762 -163)" fill="none"/>
                            </g>
                          </g>
                        </g>
                      </g>
                    </g>
                  </g>
                </g>
              </g>
            </g>
          </g>
        </g>
      </g>
    </g>
    <rect id="Rectangle_293" data-name="Rectangle 293" width="14" height="14" rx="2" transform="translate(-7058 -196)" fill="#f2f7ff"/>
    <g id="done" transform="translate(-7058 -196)">
      <g id="check-box-outline">
        <path id="Path_477" data-name="Path 477" d="M3.72,5.391,2.657,6.454,6.074,9.87l7.593-7.593L12.6,1.215l-6.53,6.53Zm8.428,6.757H1.519V1.519H9.111V0H1.519A1.523,1.523,0,0,0,0,1.519v10.63a1.523,1.523,0,0,0,1.519,1.518h10.63a1.523,1.523,0,0,0,1.518-1.518V6.074H12.148Z" fill="#1fa5e6"/>
      </g>
    </g>
  </g>
</svg>
