<svg xmlns="http://www.w3.org/2000/svg" width="30" height="30" viewBox="0 0 30 30">
  <g id="drop-field-btn" transform="translate(-8311 130)">
    <g id="download" transform="translate(8316 -125)">
      <g id="Group_115" data-name="Group 115" transform="translate(6.334)">
        <g id="Group_114" data-name="Group 114">
          <path id="Path_56" data-name="Path 56" d="M176.924,9.146a.792.792,0,0,0-.709-.438h-1.583V.792a.792.792,0,0,0-1.583,0V8.708h-1.583a.791.791,0,0,0-.633,1.267l2.375,3.167c.01.013.026.018.037.031a.773.773,0,0,0,.183.153.815.815,0,0,0,.082.055.743.743,0,0,0,.664,0,.805.805,0,0,0,.081-.055.773.773,0,0,0,.183-.153c.01-.013.027-.017.037-.031l2.375-3.167A.791.791,0,0,0,176.924,9.146Z" transform="translate(-170.674)" fill="#1fa5e6"/>
        </g>
      </g>
      <g id="Group_117" data-name="Group 117" transform="translate(0 11.875)">
        <g id="Group_116" data-name="Group 116">
          <path id="Path_57" data-name="Path 57" d="M18.208,320a.791.791,0,0,0-.792.792v2.375a2.378,2.378,0,0,1-2.375,2.375H3.958a2.378,2.378,0,0,1-2.375-2.375v-2.375a.792.792,0,0,0-1.583,0v2.375a3.963,3.963,0,0,0,3.958,3.958H15.042A3.963,3.963,0,0,0,19,323.167v-2.375A.791.791,0,0,0,18.208,320Z" transform="translate(0 -320)" fill="#1fa5e6"/>
        </g>
      </g>
    </g>
    <g id="Group_867" data-name="Group 867" transform="translate(8406 -52)">
      <g id="Group_852" data-name="Group 852" transform="translate(19 20)">
        <g id="Group_850" data-name="Group 850" transform="translate(105 -13)">
          <g id="Group_848" data-name="Group 848" transform="translate(64 -3)">
            <g id="Group_844" data-name="Group 844" transform="translate(35 1)">
              <g id="Group_842" data-name="Group 842" transform="translate(62 16)">
                <g id="Group_839" data-name="Group 839" transform="translate(89 -3)">
                  <g id="Group_836" data-name="Group 836" transform="translate(68 -2)">
                    <g id="Group_834" data-name="Group 834" transform="translate(7225 47)">
                      <g id="Group_804" data-name="Group 804" transform="translate(0 23)">
                        <g id="Group_798" data-name="Group 798" transform="translate(0 -1)">
                          <rect id="Rectangle_220" data-name="Rectangle 220" width="30" height="30" transform="translate(-7762 -163)" fill="none"/>
                        </g>
                      </g>
                    </g>
                  </g>
                </g>
              </g>
            </g>
          </g>
        </g>
      </g>
    </g>
  </g>
</svg>
