<svg xmlns="http://www.w3.org/2000/svg" width="17.018" height="20.423" viewBox="0 0 17.018 20.423"><defs><style>.a{fill:#fff;}</style></defs><g transform="translate(0)"><g transform="translate(0)"><path class="a" d="M59.633,17.226,58.172,14.79a7.234,7.234,0,0,1-1.031-3.722V8.935a5.964,5.964,0,0,0-4.255-5.706V1.7a1.7,1.7,0,1,0-3.4,0V3.229a5.964,5.964,0,0,0-4.255,5.706v2.133A7.239,7.239,0,0,1,44.2,14.79l-1.461,2.435a.426.426,0,0,0,.364.645H59.268a.425.425,0,0,0,.365-.644Z" transform="translate(-42.675)"/></g><g transform="translate(5.829 18.721)"><path class="a" d="M188.815,469.333a2.96,2.96,0,0,0,5.359,0Z" transform="translate(-188.815 -469.333)"/></g></g></svg>