<svg xmlns="http://www.w3.org/2000/svg" width="30" height="30" viewBox="0 0 30 30">
  <g id="fields-white-btn" transform="translate(7109 236)">
    <g id="add" transform="translate(-7148.278 -231)">
      <path id="Path_279" data-name="Path 279" d="M47.984.1,45.377,2.707h2.607Z" transform="translate(-0.095 -0.096)" fill="#fff"/>
      <path id="Path_280" data-name="Path 280" d="M54.918,13.357A5.171,5.171,0,0,1,58.6,11.832q.129,0,.258.006V0H49.121V3.843H45.278V17.926h8.191a5.268,5.268,0,0,1-.075-.888A5.171,5.171,0,0,1,54.918,13.357Zm-7.1-7.925h8.508V6.663H47.814Zm0,2.616h8.508V9.279H47.814Zm0,2.616h8.508v1.231H47.814Z" fill="#fff"/>
      <path id="Path_281" data-name="Path 281" d="M279.824,319.482a3.974,3.974,0,1,0,0,5.62,3.974,3.974,0,0,0,0-5.62Zm-1.065,3.426H277.63v1.129H276.4v-1.129h-1.129v-1.231H276.4v-1.129h1.231v1.129h1.129Z" transform="translate(-218.415 -305.254)" fill="#fff"/>
    </g>
    <g id="Group_855" data-name="Group 855" transform="translate(-79 -6)">
      <g id="Group_853" data-name="Group 853" transform="translate(-6650 -131)">
        <g id="Group_839" data-name="Group 839" transform="translate(89 -3)">
          <g id="Group_836" data-name="Group 836" transform="translate(68 -2)">
            <g id="Group_834" data-name="Group 834" transform="translate(7225 47)">
              <g id="Group_804" data-name="Group 804" transform="translate(0 23)">
                <g id="Group_798" data-name="Group 798" transform="translate(0 -1)">
                  <rect id="Rectangle_220" data-name="Rectangle 220" width="30" height="30" transform="translate(-7762 -163)" fill="none"/>
                </g>
              </g>
            </g>
          </g>
        </g>
      </g>
    </g>
  </g>
</svg>
