<svg xmlns="http://www.w3.org/2000/svg" width="36" height="36.001" viewBox="0 0 36 36.001"><defs><style>.a{fill:#ecf0f1;}.b{fill:#556080;}</style></defs><g transform="translate(0 -0.5)"><g transform="translate(0 0.5)"><path class="a" d="M15.67,31.291,10.3,34.221a4.827,4.827,0,0,0-.862.613,17.989,17.989,0,0,0,23.114.06,4.765,4.765,0,0,0-.947-.634l-5.751-2.875a2.193,2.193,0,0,1-1.212-1.962V27.166a8.687,8.687,0,0,0,.544-.7,13.234,13.234,0,0,0,1.788-3.6,1.806,1.806,0,0,0,1.281-1.719V18.736a1.8,1.8,0,0,0-.6-1.335V13.92S28.366,8.5,21.028,8.5s-6.623,5.419-6.623,5.419V17.4a1.8,1.8,0,0,0-.6,1.335v2.409a1.806,1.806,0,0,0,.833,1.515,11.953,11.953,0,0,0,2.178,4.506v2.2A2.2,2.2,0,0,1,15.67,31.291Z" transform="translate(-3.027 -3.066)"/><path class="b" d="M18.308.5A17.989,17.989,0,0,0,6.418,32.263a4.783,4.783,0,0,1,.854-.607l5.371-2.93A2.194,2.194,0,0,0,13.786,26.8V24.6a11.942,11.942,0,0,1-2.178-4.506,1.807,1.807,0,0,1-.833-1.515V16.169a1.8,1.8,0,0,1,.6-1.335V11.353S10.662,5.934,18,5.934s6.623,5.419,6.623,5.419v3.482a1.8,1.8,0,0,1,.6,1.335v2.409A1.806,1.806,0,0,1,23.944,20.3a13.234,13.234,0,0,1-1.788,3.6,8.685,8.685,0,0,1-.544.7v2.257a2.193,2.193,0,0,0,1.212,1.962l5.751,2.875a4.789,4.789,0,0,1,.944.633A18,18,0,0,0,18.308.5Z" transform="translate(0 -0.5)"/></g></g></svg>