<svg id="backup-restore-big-btn" xmlns="http://www.w3.org/2000/svg" width="41.918" height="41.754" viewBox="0 0 41.918 41.754">
  <rect id="Rectangle_317" data-name="Rectangle 317" width="10" height="9" transform="translate(27.017 32)" fill="#abe4ff"/>
  <path id="Path_504" data-name="Path 504" d="M-6024.711-466.746h-24.06s-4.174-.3-3.379,4.868,0,26.047,0,26.047l1.79,2.187,1.59.994h31.813v-26.643Z" transform="translate(6053.145 468.241)" fill="#abe4ff"/>
  <g id="backup_1_" data-name="backup (1)" transform="translate(0 0)">
    <path id="Path_500" data-name="Path 500" d="M41.613,30.393,37,25.126V8.278a1.227,1.227,0,0,0-.36-.868L30.073.86A1.23,1.23,0,0,0,29.2.5H4.512A4.512,4.512,0,0,0,0,5V32.921a4.512,4.512,0,0,0,4.512,4.5h21.41v3.6a1.229,1.229,0,0,0,1.23,1.228H37a1.229,1.229,0,0,0,1.231-1.228v-8.6h2.461a1.229,1.229,0,0,0,.926-2.037ZM9.926,2.956h12.3v9.825H9.926ZM2.461,32.921V5A2.051,2.051,0,0,1,4.512,2.956H7.465V14.009A1.229,1.229,0,0,0,8.7,15.237H23.461a1.229,1.229,0,0,0,1.23-1.228V2.956h4l5.842,5.83V22.319L33,20.568a1.233,1.233,0,0,0-1.852,0l-1.535,1.751v-.942a1.229,1.229,0,0,0-1.231-1.228H8.7a1.229,1.229,0,0,0-1.23,1.228V34.968H4.512a2.051,2.051,0,0,1-2.051-2.047Zm7.465,2.047V22.605H27.152c0,2.765,0,2.428,0,2.518l-4.62,5.27a1.229,1.229,0,0,0,.926,2.037h2.461v2.538ZM37,29.974a1.229,1.229,0,0,0-1.23,1.228v8.6H28.383V31.2a1.229,1.229,0,0,0-1.231-1.228h-.98l5.9-6.732,5.9,6.732Zm0,0" transform="translate(0 -0.5)" fill="#1890cb"/>
    <path id="Path_501" data-name="Path 501" d="M162.282,301.728a1.229,1.229,0,0,0-1.231-1.228H152.52a1.228,1.228,0,1,0,0,2.456h8.531A1.229,1.229,0,0,0,162.282,301.728Zm0,0" transform="translate(-138.903 -275.939)" fill="#1890cb"/>
    <path id="Path_502" data-name="Path 502" d="M158.672,360.5H152.52a1.228,1.228,0,1,0,0,2.456h6.152a1.228,1.228,0,1,0,0-2.456Zm0,0" transform="translate(-138.903 -331.026)" fill="#1890cb"/>
    <path id="Path_503" data-name="Path 503" d="M212.637,60.5a1.229,1.229,0,0,0-1.23,1.228v2.456a1.23,1.23,0,0,0,2.461,0V61.728A1.229,1.229,0,0,0,212.637,60.5Zm0,0" transform="translate(-194.099 -55.588)" fill="#1890cb"/>
  </g>
</svg>
