<svg id="business-application-big-btn" xmlns="http://www.w3.org/2000/svg" width="33.421" height="42.152" viewBox="0 0 33.421 42.152">
  <path id="Path_552" data-name="Path 552" d="M-5440.75-382.807v-31.614l4.772-3.579h22.07l2.982,3.579v25.351l-9.842,10.439h-17.9Z" transform="translate(5442.316 419.193)" fill="#abe4ff"/>
  <g id="business-application-big-btn-2" data-name="business-application-big-btn" transform="translate(0)">
    <path id="business-application-big-btn-3" data-name="business-application-big-btn" d="M18.526,29.469l-9.793,0h0a1.647,1.647,0,0,1,0-3.293l9.793,0h0a1.647,1.647,0,0,1,0,3.293ZM16.3,32.185l-7.57,0a1.647,1.647,0,0,0,0,3.293h0l7.57,0a1.647,1.647,0,0,0,0-3.293Zm17.135-.306-9.795,9.785h0l-.007.006c-.036.035-.073.069-.112.1l-.031.023c-.032.025-.065.05-.1.073l-.028.017c-.036.023-.072.046-.11.066l-.019.009c-.041.021-.084.042-.127.06l-.011,0c-.046.019-.093.036-.141.05l-.011,0c-.048.014-.1.026-.144.036l-.033.005c-.041.007-.083.014-.126.019a1.638,1.638,0,0,1-.164.008l-15.391,0A6.594,6.594,0,0,1,.5,35.565V6.586A6.594,6.594,0,0,1,7.086,0H27.33a6.594,6.594,0,0,1,6.586,6.586l0,15.889a1.647,1.647,0,1,1-3.293,0l0-15.889A3.3,3.3,0,0,0,27.33,3.292H7.086A3.3,3.3,0,0,0,3.793,6.586v28.98a3.3,3.3,0,0,0,3.293,3.293l13.744,0V34.829a5.77,5.77,0,0,1,5.763-5.763h5.68c.055,0,.109,0,.164.008.023,0,.046.007.069.01s.06.008.09.014.055.013.083.02.049.011.073.019.054.019.081.028.047.016.07.026.051.023.076.036.047.021.069.033.05.029.074.044.043.025.064.039.057.041.085.062.03.021.044.033a1.651,1.651,0,0,1,.232.232c.011.013.02.027.031.041.022.029.045.058.065.089s.023.038.035.058.033.053.048.081.02.041.029.061.027.056.04.085.014.04.022.059.023.061.032.093.01.038.015.057.018.066.024.1.006.041.009.061.011.065.014.1,0,.058,0,.087,0,.049,0,.074,0,.048,0,.071,0,.059,0,.089-.009.067-.014.1-.005.04-.009.059-.016.067-.024.1-.009.038-.014.056-.022.063-.033.094-.014.039-.022.059-.026.057-.04.085-.019.041-.029.061-.032.054-.048.081-.023.039-.035.058-.044.061-.067.09c-.01.013-.019.026-.029.039-.036.043-.073.084-.113.124Zm-9.312,2.95v1.7L28.3,32.359h-1.7A2.473,2.473,0,0,0,24.124,34.829Zm-1.74-11.778H11.877a2.736,2.736,0,0,1-2.674-3.3,8.069,8.069,0,0,1,3.74-5.257,5.187,5.187,0,1,1,8.377,0,8.07,8.07,0,0,1,3.74,5.257,2.736,2.736,0,0,1-2.674,3.3ZM15.237,11.443A1.894,1.894,0,1,0,17.13,9.549,1.9,1.9,0,0,0,15.237,11.443Zm6.407,8.315a4.784,4.784,0,0,0-4.471-3.128h-.086a4.784,4.784,0,0,0-4.471,3.128Zm0,0" transform="translate(-0.5 0.001)" fill="#1890cb"/>
  </g>
</svg>
