<svg xmlns="http://www.w3.org/2000/svg" width="32.928" height="43.234" viewBox="0 0 32.928 43.234">
  <g id="load-balancing-big-btn" transform="translate(1 1)">
    <path id="Path_376" data-name="Path 376" d="M0,0H11.362V3.787H0Z" transform="translate(5.048 32.927)" fill="#1891cb"/>
    <g id="Rectangle_192" data-name="Rectangle 192" transform="translate(3.181 17.374)" fill="#1891cb" stroke="#707070" stroke-width="1">
      <rect width="11.93" height="5.965" stroke="none"/>
      <rect x="0.5" y="0.5" width="10.93" height="4.965" fill="none"/>
    </g>
    <rect id="Rectangle_191" data-name="Rectangle 191" width="11.93" height="5.965" transform="translate(3.181 3.058)" fill="#1891cb"/>
    <path id="Path_374" data-name="Path 374" d="M37.92,20.027a3.011,3.011,0,0,0,3.007-3.007V11.007A3.012,3.012,0,0,0,37.92,8H13.007A3.009,3.009,0,0,0,10,11.007V17.02a3.011,3.011,0,0,0,3.007,3.007h.43V22.6h-.43A3.011,3.011,0,0,0,10,25.612v6.012a3.011,3.011,0,0,0,3.007,3.007h.43v2.577h-.43a3.007,3.007,0,0,0-3.007,3v6.012a3.009,3.009,0,0,0,3,3.007H37.918a3.009,3.009,0,0,0,3.007-3.007V40.214a3.011,3.011,0,0,0-3.007-3.007h-.43V34.629h.43a3.011,3.011,0,0,0,3.007-3.007V25.609A3.011,3.011,0,0,0,37.918,22.6h-.43V20.025h.433ZM16.871,12.3h3.438a1.718,1.718,0,1,1,0,3.435H16.873a1.718,1.718,0,1,1,0-3.435ZM15.154,28.617A1.72,1.72,0,0,1,16.873,26.9h3.435a1.719,1.719,0,0,1,0,3.438H16.873A1.719,1.719,0,0,1,15.154,28.617Zm5.154,16.321H16.873a1.718,1.718,0,1,1,0-3.435h3.438a1.718,1.718,0,1,1,0,3.435Zm13.744-7.731H16.871V34.629H34.052Zm0-14.6H16.871V20.027H34.052Z" transform="translate(-10 -8)" fill="#abe4ff" stroke="#1891cb" stroke-width="2"/>
  </g>
</svg>
