<svg xmlns="http://www.w3.org/2000/svg" width="30" height="30" viewBox="0 0 30 30">
  <g id="middleware-btn" transform="translate(469 96)">
    <g id="Group_836" data-name="Group 836" transform="translate(68 -2)">
      <g id="Group_834" data-name="Group 834" transform="translate(7225 47)">
        <g id="Group_804" data-name="Group 804" transform="translate(0 23)">
          <g id="Group_798" data-name="Group 798" transform="translate(0 -1)">
            <rect id="Rectangle_220" data-name="Rectangle 220" width="30" height="30" transform="translate(-7762 -163)" fill="none"/>
          </g>
        </g>
      </g>
    </g>
    <g id="upload" transform="translate(-496.55 -93)">
      <g id="Group_657" data-name="Group 657" transform="translate(33.445 0.499)">
        <circle id="Ellipse_54" data-name="Ellipse 54" cx="1.484" cy="1.484" r="1.484" transform="translate(15.424 16.576)" fill="#abe4ff"/>
        <path id="Path_352" data-name="Path 352" d="M68.636,18.853A3.343,3.343,0,0,1,65.293,22.2H64.21a4.757,4.757,0,1,0-9.322-1.335,4.7,4.7,0,0,0,.188,1.33l-.015,0H54a3.342,3.342,0,0,1-1.39-6.384,4,4,0,0,1,3.8-2.843,4.248,4.248,0,0,1,.806.074,5.031,5.031,0,0,1,9.608,2.087,7.275,7.275,0,0,1-.049.732A3.333,3.333,0,0,1,68.636,18.853Z" transform="translate(-50.65 -10.1)" fill="#abe4ff"/>
      </g>
      <path id="Path_353" data-name="Path 353" d="M145.158,138.993a4.747,4.747,0,1,1,.806-2.636,4.564,4.564,0,0,1-.193,1.335A4.9,4.9,0,0,1,145.158,138.993Z" transform="translate(-98.762 -125.092)" fill="#abe4ff"/>
      <g id="Group_658" data-name="Group 658" transform="translate(33.044 17.076)">
        <circle id="Ellipse_55" data-name="Ellipse 55" cx="1.484" cy="1.484" r="1.484" transform="translate(7.912 2.473)" fill="#abe4ff"/>
        <circle id="Ellipse_56" data-name="Ellipse 56" cx="1.484" cy="1.484" r="1.484" fill="#abe4ff"/>
      </g>
      <path id="Path_354" data-name="Path 354" d="M50.353,16.591a1.945,1.945,0,0,0-1.914,1.493H47.88a1.009,1.009,0,0,1-.989-1.009V14.044a4.892,4.892,0,0,0,.47-.954h.722A3.838,3.838,0,0,0,50.09,5.979a4.535,4.535,0,0,0,.02-.455A5.523,5.523,0,0,0,41.565.9,5.587,5.587,0,0,0,39.73,2.893a4.591,4.591,0,0,0-.524-.03,4.4,4.4,0,0,0-2.68.91A4.617,4.617,0,0,0,35,5.85a3.862,3.862,0,0,0-.925.682,3.836,3.836,0,0,0,2.715,6.552h.727a4.892,4.892,0,0,0,.47.954v3.031A1.009,1.009,0,0,1,37,18.08h-.559a1.949,1.949,0,0,0-1.914-1.493,1.978,1.978,0,1,0,1.914,2.478H37a1.994,1.994,0,0,0,1.978-2V15.2c.094.079.188.158.282.232a5.188,5.188,0,0,0,2.685,1.048v2.631a1.978,1.978,0,1,0,.989,0V16.477A5.22,5.22,0,0,0,45.9,15.2v1.869a1.994,1.994,0,0,0,1.978,2h.559a1.977,1.977,0,1,0,1.914-2.473ZM34.528,19.548a.989.989,0,1,1,.989-.989A.992.992,0,0,1,34.528,19.548Zm-.584-10.3A2.824,2.824,0,0,1,34.78,7.24a2.921,2.921,0,0,1,.841-.579l.2-.094.064-.208a3.522,3.522,0,0,1,3.323-2.492,3.955,3.955,0,0,1,.707.064l.381.079.163-.351a4.671,4.671,0,0,1,1.652-1.919,4.529,4.529,0,0,1,7.012,3.793c0,.2-.02.4-.04.618l-.04.4.307.153a2.844,2.844,0,0,1-1.261,5.4h-.465a5.5,5.5,0,0,0,.069-.841,5.252,5.252,0,0,0-10.5,0,5.5,5.5,0,0,0,.069.841h-.465A2.849,2.849,0,0,1,33.944,9.252Zm9.485,11.779a.989.989,0,1,1-.989-.989A.992.992,0,0,1,43.429,21.032Zm-.989-5.509a4.277,4.277,0,0,1-4.09-3.066h0a4.206,4.206,0,0,1-.168-1.192,4.263,4.263,0,1,1,8.525,0,4.219,4.219,0,0,1-.173,1.2,4.118,4.118,0,0,1-.544,1.167A4.291,4.291,0,0,1,42.44,15.523Zm7.912,4.025a.989.989,0,1,1,.989-.989A.992.992,0,0,1,50.353,19.548Z" fill="#1891cb"/>
    </g>
  </g>
</svg>
