<svg xmlns="http://www.w3.org/2000/svg" width="30" height="30" viewBox="0 0 30 30">
  <g id="server-software-btn" transform="translate(283 82)">
    <g id="Group_844" data-name="Group 844" transform="translate(35 1)">
      <g id="Group_842" data-name="Group 842" transform="translate(62 16)">
        <g id="Group_839" data-name="Group 839" transform="translate(89 -3)">
          <g id="Group_836" data-name="Group 836" transform="translate(68 -2)">
            <g id="Group_834" data-name="Group 834" transform="translate(7225 47)">
              <g id="Group_804" data-name="Group 804" transform="translate(0 23)">
                <g id="Group_798" data-name="Group 798" transform="translate(0 -1)">
                  <rect id="Rectangle_220" data-name="Rectangle 220" width="30" height="30" transform="translate(-7762 -163)" fill="none"/>
                </g>
              </g>
            </g>
          </g>
        </g>
      </g>
    </g>
    <g id="Group_845" data-name="Group 845" transform="translate(4342 22)">
      <g id="Group_668" data-name="Group 668" transform="translate(-4618 -100)">
        <g id="XMLID_1_">
          <rect id="Rectangle_194" data-name="Rectangle 194" width="14" height="20" transform="translate(1 0.667)" fill="#abe4ff"/>
          <path id="Path_384" data-name="Path 384" d="M16.722,7.5a.667.667,0,0,1,0,1.333H16.5V7.5Z" transform="translate(-1.833 -0.833)" fill="#1891cb"/>
          <path id="Path_385" data-name="Path 385" d="M1.5,7.5H14.833V8.833H1.5Z" transform="translate(-0.167 -0.833)" fill="#1891cb"/>
          <path id="Path_387" data-name="Path 387" d="M16.167,15.667a.672.672,0,0,1-.667.667H1.5V15h14A.672.672,0,0,1,16.167,15.667Z" transform="translate(-0.167 -1.667)" fill="#1891cb"/>
          <circle id="Ellipse_61" data-name="Ellipse 61" cx="1.5" cy="1.5" r="1.5" transform="translate(10 2.667)" fill="#1891cb"/>
          <ellipse id="Ellipse_62" data-name="Ellipse 62" cx="1" cy="1.5" rx="1" ry="1.5" transform="translate(7 2.667)" fill="#1891cb"/>
          <circle id="Ellipse_63" data-name="Ellipse 63" cx="1.5" cy="1.5" r="1.5" transform="translate(3 2.667)" fill="#1891cb"/>
          <path id="Path_388" data-name="Path 388" d="M1.389,15v1.333H1.167a.667.667,0,0,1,0-1.333Z" transform="translate(-0.056 -1.667)" fill="#1891cb"/>
          <path id="Path_389" data-name="Path 389" d="M1.389,7.5V8.833H1.167a.667.667,0,1,1,0-1.333Z" transform="translate(-0.056 -0.833)" fill="#1891cb"/>
          <path id="Path_390" data-name="Path 390" d="M0,14V2.444A2.443,2.443,0,0,1,2.444,0H13.556A2.443,2.443,0,0,1,16,2.444V18c0,.364-1.333.364-1.333,0V8h.222a.667.667,0,1,0,0-1.333h-.222V2.444a1.112,1.112,0,0,0-1.111-1.111H2.444A1.112,1.112,0,0,0,1.333,2.444V6.667H1.111A.667.667,0,1,0,1.111,8h.222v5.333H1.111A.672.672,0,0,0,.444,14Z" fill="#1891cb"/>
          <path id="Path_391" data-name="Path 391" d="M0,20.639V15.75H.444a.672.672,0,0,0,.667.667h.222v4.222A1.112,1.112,0,0,0,2.444,21.75H13.556a.663.663,0,0,1,.613.409.638.638,0,0,1,.053.258.672.672,0,0,1-.667.667H2.444A2.443,2.443,0,0,1,0,20.639Z" transform="translate(0 -1.75)" fill="#1891cb"/>
          <path id="Path_392" data-name="Path 392" d="M14.222,20.639V15.75h-.444a.672.672,0,0,1-.667.667h-.222v4.222a1.112,1.112,0,0,1-1.111,1.111H.667a.663.663,0,0,0-.613.409A.638.638,0,0,0,0,22.417a.672.672,0,0,0,.667.667H11.778A2.443,2.443,0,0,0,14.222,20.639Z" transform="translate(1.778 -1.75)" fill="#1891cb"/>
        </g>
      </g>
    </g>
  </g>
</svg>
