<svg xmlns="http://www.w3.org/2000/svg" width="30" height="40" viewBox="0 0 30 40">
  <g id="server-software-big-btn" transform="translate(4615 100)">
    <g id="Group_668" data-name="Group 668" transform="translate(-4615 -100)">
      <g id="XMLID_1_">
        <rect id="Rectangle_194" data-name="Rectangle 194" width="25.794" height="38.131" transform="translate(2.243 0.748)" fill="#abe4ff"/>
        <path id="Path_384" data-name="Path 384" d="M16.917,7.5a1.25,1.25,0,1,1,0,2.5H16.5V7.5Z" transform="translate(11 5)" fill="#1891cb"/>
        <path id="Path_385" data-name="Path 385" d="M1.5,7.5h25V10H1.5Z" transform="translate(1 5)" fill="#1891cb"/>
        <path id="Path_387" data-name="Path 387" d="M29,16.25a1.259,1.259,0,0,1-1.25,1.25H1.5V15H27.75A1.259,1.259,0,0,1,29,16.25Z" transform="translate(1 10)" fill="#1891cb"/>
        <circle id="Ellipse_61" data-name="Ellipse 61" cx="2.804" cy="2.804" r="2.804" transform="translate(19.065 5.234)" fill="#1891cb"/>
        <ellipse id="Ellipse_62" data-name="Ellipse 62" cx="1.682" cy="2.804" rx="1.682" ry="2.804" transform="translate(13.458 5.234)" fill="#1891cb"/>
        <circle id="Ellipse_63" data-name="Ellipse 63" cx="2.804" cy="2.804" r="2.804" transform="translate(5.607 5.234)" fill="#1891cb"/>
        <path id="Path_388" data-name="Path 388" d="M2.167,15v2.5H1.75a1.25,1.25,0,0,1,0-2.5Z" transform="translate(0.333 10)" fill="#1891cb"/>
        <path id="Path_389" data-name="Path 389" d="M2.167,7.5V10H1.75a1.25,1.25,0,0,1,0-2.5Z" transform="translate(0.333 5)" fill="#1891cb"/>
        <path id="Path_390" data-name="Path 390" d="M0,26.25V4.583A4.581,4.581,0,0,1,4.583,0H25.417A4.581,4.581,0,0,1,30,4.583V33.75c0,.683-2.5.683-2.5,0V15h.417a1.25,1.25,0,1,0,0-2.5H27.5V4.583A2.084,2.084,0,0,0,25.417,2.5H4.583A2.084,2.084,0,0,0,2.5,4.583V12.5H2.083a1.25,1.25,0,1,0,0,2.5H2.5V25H2.083a1.259,1.259,0,0,0-1.25,1.25Z" fill="#1891cb"/>
        <path id="Path_391" data-name="Path 391" d="M0,24.917V15.75H.833A1.259,1.259,0,0,0,2.083,17H2.5v7.917A2.084,2.084,0,0,0,4.583,27H25.417a1.243,1.243,0,0,1,1.15.767,1.2,1.2,0,0,1,.1.483,1.259,1.259,0,0,1-1.25,1.25H4.583A4.581,4.581,0,0,1,0,24.917Z" transform="translate(0 10.5)" fill="#1891cb"/>
        <path id="Path_392" data-name="Path 392" d="M26.667,24.917V15.75h-.833A1.259,1.259,0,0,1,24.583,17h-.417v7.917A2.084,2.084,0,0,1,22.083,27H1.25a1.243,1.243,0,0,0-1.15.767,1.2,1.2,0,0,0-.1.483A1.259,1.259,0,0,0,1.25,29.5H22.083A4.581,4.581,0,0,0,26.667,24.917Z" transform="translate(3.333 10.5)" fill="#1891cb"/>
      </g>
    </g>
  </g>
</svg>
