<svg id="storage-device-big-btn" xmlns="http://www.w3.org/2000/svg" width="34" height="42.947" viewBox="0 0 34 42.947">
  <path id="Path_524" data-name="Path 524" d="M-5859.75-428.469V-465.75h19.684l11.035,10.14v27.14Z" transform="translate(5861.242 468.434)" fill="#abe4ff"/>
  <g id="sim-card" transform="translate(0 0)">
    <path id="Path_521" data-name="Path 521" d="M30.421,42.948A3.582,3.582,0,0,0,34,39.369V14.093a5.381,5.381,0,0,0-1.728-3.944L22.82,1.423A5.352,5.352,0,0,0,19.181,0H3.579A3.582,3.582,0,0,0,0,3.579v35.79a3.582,3.582,0,0,0,3.579,3.579ZM3.579,3.579h15.6a1.784,1.784,0,0,1,1.213.474l9.451,8.726a1.789,1.789,0,0,1,.576,1.314V39.369H3.579Zm0,0" transform="translate(0 0)" fill="#188fcb"/>
    <path id="Path_522" data-name="Path 522" d="M81.895,240a1.79,1.79,0,0,0-1.789,1.789v1.789H75.632v-1.789a1.789,1.789,0,0,0-3.579,0v1.789H67.579v-1.789a1.789,1.789,0,0,0-3.579,0v1.789a3.582,3.582,0,0,0,3.579,3.579H80.105a3.583,3.583,0,0,0,3.579-3.579v-1.789A1.79,1.79,0,0,0,81.895,240Zm0,0" transform="translate(-56.842 -213.158)" fill="#188fcb"/>
    <path id="Path_523" data-name="Path 523" d="M80.105,144H67.579A3.583,3.583,0,0,0,64,147.579v1.789a1.789,1.789,0,0,0,3.579,0v-1.789h4.474v1.789a1.789,1.789,0,0,0,3.579,0v-1.789h4.474v1.789a1.789,1.789,0,0,0,3.579,0v-1.789A3.583,3.583,0,0,0,80.105,144Zm0,0" transform="translate(-56.842 -127.895)" fill="#188fcb"/>
  </g>
</svg>
