<svg id="virtual-server-big-btn" xmlns="http://www.w3.org/2000/svg" width="40.26" height="40.26" viewBox="0 0 40.26 40.26">
  <rect id="Rectangle_316" data-name="Rectangle 316" width="34.597" height="29.825" transform="translate(3.277 2.084)" fill="#abe4ff"/>
  <g id="_10-pc" data-name="10-pc" transform="translate(0 0)">
    <path id="Path_498" data-name="Path 498" d="M38.582,0H1.677A1.677,1.677,0,0,0,0,1.677V31.872A1.677,1.677,0,0,0,1.677,33.55H15.1V36.9H11.742V40.26H28.517V36.9H25.162V33.55h13.42a1.677,1.677,0,0,0,1.677-1.677V1.677A1.677,1.677,0,0,0,38.582,0ZM36.9,3.355V25.162H3.355V3.355ZM21.807,36.9H18.452V33.55h3.355ZM3.355,30.195V28.517H36.9v1.677Z" fill="#1890cb"/>
    <path id="Path_499" data-name="Path 499" d="M17.677,31.742h8.387a1.678,1.678,0,0,0,1.186-.491l2.169-2.169,2.169,2.169a1.677,1.677,0,0,0,1.186.491h8.387a1.677,1.677,0,0,0,1.677-1.677V21.677A1.677,1.677,0,0,0,41.162,20H17.677A1.677,1.677,0,0,0,16,21.677v8.387A1.677,1.677,0,0,0,17.677,31.742Zm1.677-8.387h20.13v5.032H33.47l-2.864-2.864a1.677,1.677,0,0,0-2.372,0L25.37,28.387H19.355Z" transform="translate(-9.29 -11.613)" fill="#1890cb"/>
  </g>
</svg>
