<svg xmlns="http://www.w3.org/2000/svg" width="17" height="17" viewBox="0 0 17 17"><defs><style>.a{fill:#fff;}</style></defs><g transform="translate(0 0)"><path class="a" d="M6.552,5.667H1.24A1.241,1.241,0,0,1,0,4.427V1.24A1.241,1.241,0,0,1,1.24,0H6.552a1.241,1.241,0,0,1,1.24,1.24V4.427A1.241,1.241,0,0,1,6.552,5.667ZM1.24,1.063a.177.177,0,0,0-.177.177V4.427A.177.177,0,0,0,1.24,4.6H6.552a.177.177,0,0,0,.177-.177V1.24a.177.177,0,0,0-.177-.177Zm0,0"/><path class="a" d="M6.552,223.249H1.24A1.241,1.241,0,0,1,0,222.009v-7.438a1.241,1.241,0,0,1,1.24-1.24H6.552a1.241,1.241,0,0,1,1.24,1.24v7.438A1.241,1.241,0,0,1,6.552,223.249ZM1.24,214.395a.177.177,0,0,0-.177.177v7.438a.177.177,0,0,0,.177.177H6.552a.177.177,0,0,0,.177-.177v-7.438a.177.177,0,0,0-.177-.177Zm0,0" transform="translate(0 -206.249)"/><path class="a" d="M283.884,347h-5.312a1.241,1.241,0,0,1-1.24-1.24v-3.187a1.241,1.241,0,0,1,1.24-1.24h5.313a1.241,1.241,0,0,1,1.24,1.24v3.188A1.241,1.241,0,0,1,283.884,347Zm-5.312-4.6a.177.177,0,0,0-.177.177v3.188a.177.177,0,0,0,.177.177h5.313a.177.177,0,0,0,.177-.177v-3.187a.177.177,0,0,0-.177-.177Zm0,0" transform="translate(-268.124 -329.999)"/><path class="a" d="M283.884,9.917h-5.312a1.241,1.241,0,0,1-1.24-1.24V1.24A1.241,1.241,0,0,1,278.572,0h5.313a1.241,1.241,0,0,1,1.24,1.24V8.677A1.241,1.241,0,0,1,283.884,9.917Zm-5.312-8.854a.177.177,0,0,0-.177.177V8.677a.177.177,0,0,0,.177.177h5.313a.177.177,0,0,0,.177-.177V1.24a.177.177,0,0,0-.177-.177Zm0,0" transform="translate(-268.124)"/></g></svg>