<svg xmlns="http://www.w3.org/2000/svg" width="14.436" height="19.721" viewBox="0 0 14.436 19.721"><defs><style>.a{fill:#d8d8d8;}.b{fill:#979797;}</style></defs><g transform="translate(0.489 2.916)"><path class="a" d="M78.107,250.7v4.646c0,.935-1.448,1.744-3.58,2.151a16.985,16.985,0,0,1-3.149.281c-3.715,0-6.729-1.09-6.729-2.437V250.7c0,1.347,3.013,2.437,6.729,2.437S78.107,252.052,78.107,250.7Z" transform="translate(-64.65 -241.472)"/><path class="a" d="M78.107,160.02v.1c0,1.347-3.013,2.437-6.729,2.437s-6.729-1.09-6.729-2.437V155.5c0,1.347,3.013,2.437,6.729,2.437s6.729-1.09,6.729-2.437Z" transform="translate(-64.65 -150.884)"/><path class="a" d="M78.107,60.2v4.612c0,1.347-3.013,2.437-6.729,2.437s-6.729-1.09-6.729-2.437V60.2c0,1.347,3.013,2.437,6.729,2.437S78.107,61.547,78.107,60.2Z" transform="translate(-64.65 -60.2)"/></g><path class="a" d="M71.379,10c3.715,0,6.729,1.09,6.729,2.437s-3.013,2.437-6.729,2.437-6.729-1.09-6.729-2.437S67.663,10,71.379,10Z" transform="translate(-64.161 -9.516)"/><path class="b" d="M61.768,0a15,15,0,0,0-4.927.741c-1.894.688-2.291,1.565-2.291,2.18V16.8c0,.615.4,1.492,2.291,2.18a14.981,14.981,0,0,0,4.927.741,17.606,17.606,0,0,0,3.241-.291c2.524-.484,3.977-1.444,3.977-2.63V2.921c0-.615-.4-1.492-2.291-2.175A14.868,14.868,0,0,0,61.768,0Zm5.493,17.652a7.718,7.718,0,0,1-2.437.819,16.447,16.447,0,0,1-3.057.276,14.059,14.059,0,0,1-4.6-.683c-1.216-.441-1.652-.945-1.652-1.264V13.68a6,6,0,0,0,1.322.649,16.744,16.744,0,0,0,9.853,0,6.222,6.222,0,0,0,1.322-.649V16.8C68.017,17.056,67.741,17.371,67.261,17.652Zm.756-5.5c0,.325-.436.828-1.652,1.269a15.812,15.812,0,0,1-9.194,0c-1.216-.441-1.652-.945-1.652-1.269V9.059a6,6,0,0,0,1.322.649,14.981,14.981,0,0,0,4.927.741,14.981,14.981,0,0,0,4.926-.741,6.222,6.222,0,0,0,1.322-.649v3.091ZM66.365,8.8a14.059,14.059,0,0,1-4.6.683,14.059,14.059,0,0,1-4.6-.683c-1.216-.441-1.652-.945-1.652-1.269V4.442a6,6,0,0,0,1.322.649,14.981,14.981,0,0,0,4.927.741,14.981,14.981,0,0,0,4.926-.741,6.222,6.222,0,0,0,1.322-.649V7.533C68.017,7.857,67.581,8.361,66.365,8.8Zm1.647-5.881c0,.325-.436.828-1.652,1.269a14.146,14.146,0,0,1-4.592.678,14.008,14.008,0,0,1-4.592-.683c-1.216-.441-1.652-.945-1.652-1.269s.436-.824,1.652-1.264a15.779,15.779,0,0,1,9.185,0C67.581,2.093,68.012,2.6,68.012,2.921Z" transform="translate(-54.55 0)"/></svg>