<svg id="backend-service-big-btn" xmlns="http://www.w3.org/2000/svg" width="41.556" height="41.556" viewBox="0 0 41.556 41.556">
  <path id="Path_551" data-name="Path 551" d="M-5470.542-379.157V-417.25H-5509.5v25.684l5.483,1.154h9.812l1.731,3.752-4.9,1.443-2.6,6.06h12.121l2.308,1.731Z" transform="translate(5510.077 418.116)" fill="#abe4ff"/>
  <g id="backend-services-big-btn">
    <g id="transfer">
      <g id="Group_1182" data-name="Group 1182">
        <g id="Group_1181" data-name="Group 1181">
          <path id="Path_534" data-name="Path 534" d="M37.9,0H3.652A3.657,3.657,0,0,0,0,3.652v22A3.657,3.657,0,0,0,3.652,29.3h11.5l1.237,2.516h-.479A6.094,6.094,0,0,0,9.821,37.9a1.217,1.217,0,0,0,1.217,1.217H22.2a3.658,3.658,0,0,0,3.443,2.435H37.9A3.657,3.657,0,0,0,41.556,37.9V3.652A3.657,3.657,0,0,0,37.9,0ZM22,36.686H12.464a3.659,3.659,0,0,1,3.444-2.435H22Zm0-4.87H19.1L17.864,29.3H22Zm0-4.951H3.652a1.219,1.219,0,0,1-1.217-1.217V24.43H22ZM39.121,37.9A1.219,1.219,0,0,1,37.9,39.121H25.648A1.219,1.219,0,0,1,24.43,37.9V36.686H39.121Zm0-3.652H24.43V22H39.121Zm0-14.691H24.43V18.343a1.219,1.219,0,0,1,1.217-1.217H37.9a1.219,1.219,0,0,1,1.217,1.217Zm0-4.66a3.635,3.635,0,0,0-1.217-.209H25.648A3.657,3.657,0,0,0,22,18.343V22H2.435V3.652A1.219,1.219,0,0,1,3.652,2.435H37.9a1.219,1.219,0,0,1,1.217,1.217Z" fill="#1890cb"/>
        </g>
      </g>
      <g id="Group_1184" data-name="Group 1184" transform="translate(4.87 4.87)">
        <g id="Group_1183" data-name="Group 1183">
          <path id="Path_535" data-name="Path 535" d="M74.348,62.887l-2.435-2.516a1.217,1.217,0,0,0-1.75,1.693l.437.452H61.217a1.217,1.217,0,0,0,0,2.435h9.317l-.357.357A1.217,1.217,0,0,0,71.9,67.03l2.435-2.435A1.22,1.22,0,0,0,74.348,62.887Z" transform="translate(-60 -60)" fill="#1890cb"/>
        </g>
      </g>
      <g id="Group_1186" data-name="Group 1186" transform="translate(4.871 12.256)">
        <g id="Group_1185" data-name="Group 1185">
          <path id="Path_536" data-name="Path 536" d="M73.49,153.434H64.173l.357-.357a1.217,1.217,0,0,0-1.722-1.722l-2.435,2.435a1.221,1.221,0,0,0-.081,1.633q.038.047.081.09l2.435,2.435a1.217,1.217,0,0,0,1.722-1.722l-.357-.357H73.49a1.217,1.217,0,1,0,0-2.435Z" transform="translate(-60.018 -150.999)" fill="#1890cb"/>
        </g>
      </g>
    </g>
  </g>
</svg>
