<svg id="backup-application-big-btn" xmlns="http://www.w3.org/2000/svg" width="32.038" height="41.633" viewBox="0 0 32.038 41.633">
  <path id="Path_510" data-name="Path 510" d="M-5981.5-466.747h14.614l13.719,12.821v25.649H-5981.5Z" transform="translate(5983.29 468.242)" fill="#abe4ff"/>
  <g id="docs" transform="translate(0 0)">
    <path id="Path_505" data-name="Path 505" d="M89.25,12.928S78.112,1.786,78.112,1.786A6.094,6.094,0,0,0,73.8,0H59V41.633H91.038V17.239A6.08,6.08,0,0,0,89.25,12.928ZM79.9,7.022l4.118,4.118H79.9Zm8.7,32.171H61.439V2.439H73.8A3.663,3.663,0,0,1,77.458,6.1V13.58h7.481A3.663,3.663,0,0,1,88.6,17.239Z" transform="translate(-59 0)" fill="#1890cb"/>
    <path id="Path_506" data-name="Path 506" d="M134,407h14.352v2.439H134Z" transform="translate(-127.901 -373.905)" fill="#1890cb"/>
    <path id="Path_507" data-name="Path 507" d="M134,347h19.841v2.439H134Z" transform="translate(-127.901 -318.784)" fill="#1890cb"/>
    <path id="Path_508" data-name="Path 508" d="M134,287h19.841v2.439H134Z" transform="translate(-127.901 -263.663)" fill="#1890cb"/>
    <path id="Path_509" data-name="Path 509" d="M134,227h19.841v2.439H134Z" transform="translate(-127.901 -208.542)" fill="#1890cb"/>
  </g>
</svg>
