<svg xmlns="http://www.w3.org/2000/svg" width="28.183" height="38.5" viewBox="0 0 28.183 38.5">
  <g id="cmdb-big-btn" transform="translate(-54.55)">
    <g id="Group_656" data-name="Group 656" transform="translate(55.505 5.693)">
      <path id="Path_347" data-name="Path 347" d="M90.922,250.709v9.069c0,1.825-2.828,3.4-6.989,4.2a33.16,33.16,0,0,1-6.147.549c-7.254,0-13.136-2.128-13.136-4.757V250.7c0,2.629,5.882,4.757,13.136,4.757S90.922,253.339,90.922,250.709Z" transform="translate(-64.65 -232.684)" fill="#abe4ff"/>
      <path id="Path_348" data-name="Path 348" d="M90.922,164.324v.189c0,2.629-5.882,4.757-13.136,4.757s-13.136-2.128-13.136-4.757V155.5c0,2.629,5.882,4.757,13.136,4.757s13.136-2.128,13.136-4.757Z" transform="translate(-64.65 -146.487)" fill="#abe4ff"/>
      <path id="Path_349" data-name="Path 349" d="M90.922,60.209v9c0,2.629-5.882,4.757-13.136,4.757S64.65,71.842,64.65,69.213V60.2c0,2.629,5.882,4.757,13.136,4.757S90.922,62.829,90.922,60.209Z" transform="translate(-64.65 -60.2)" fill="#abe4ff"/>
    </g>
    <path id="Path_350" data-name="Path 350" d="M77.786,10c7.254,0,13.136,2.128,13.136,4.757s-5.882,4.757-13.136,4.757S64.65,17.386,64.65,14.757,70.532,10,77.786,10Z" transform="translate(-9.145 -9.054)" fill="#abe4ff"/>
    <path id="Path_351" data-name="Path 351" d="M68.641,0a29.288,29.288,0,0,0-9.618,1.447C55.325,2.79,54.55,4.5,54.55,5.7V32.8c0,1.2.775,2.913,4.473,4.256A29.248,29.248,0,0,0,68.641,38.5a34.37,34.37,0,0,0,6.327-.567c4.927-.946,7.764-2.818,7.764-5.135V5.7c0-1.2-.775-2.913-4.473-4.246A29.027,29.027,0,0,0,68.641,0ZM79.366,34.462a15.067,15.067,0,0,1-4.757,1.6,32.109,32.109,0,0,1-5.967.539,27.448,27.448,0,0,1-8.975-1.333c-2.374-.861-3.225-1.844-3.225-2.468v-6.09a11.711,11.711,0,0,0,2.582,1.267,29.248,29.248,0,0,0,9.618,1.447,29.248,29.248,0,0,0,9.618-1.447,12.146,12.146,0,0,0,2.582-1.267V32.8C80.841,33.3,80.3,33.913,79.366,34.462Zm1.475-10.743c0,.634-.851,1.617-3.225,2.478a27.448,27.448,0,0,1-8.975,1.333A27.448,27.448,0,0,1,59.666,26.2c-2.374-.861-3.225-1.844-3.225-2.478V17.685a11.712,11.712,0,0,0,2.582,1.267A29.248,29.248,0,0,0,68.641,20.4a29.248,29.248,0,0,0,9.618-1.447,12.146,12.146,0,0,0,2.582-1.267v6.034Zm-3.225-6.535a27.448,27.448,0,0,1-8.975,1.333,27.448,27.448,0,0,1-8.975-1.333c-2.374-.861-3.225-1.844-3.225-2.478V8.672a11.711,11.711,0,0,0,2.582,1.267,29.248,29.248,0,0,0,9.618,1.447,29.248,29.248,0,0,0,9.618-1.447,12.146,12.146,0,0,0,2.582-1.267v6.034C80.841,15.339,79.99,16.323,77.616,17.184ZM80.831,5.7c0,.634-.851,1.617-3.225,2.478A27.617,27.617,0,0,1,68.641,9.5a27.348,27.348,0,0,1-8.965-1.333C57.3,7.31,56.451,6.327,56.451,5.693s.851-1.608,3.225-2.468a27.429,27.429,0,0,1,8.965-1.333,27.347,27.347,0,0,1,8.965,1.333C79.99,4.085,80.831,5.069,80.831,5.7Z" transform="translate(0 0)" fill="#1891cb"/>
  </g>
</svg>
