<svg id="data-center-big-btn" xmlns="http://www.w3.org/2000/svg" width="41.754" height="41.754" viewBox="0 0 41.754 41.754">
  <path id="Path_548" data-name="Path 548" d="M-5590.573-537.042h-11.772l-3.428-1.937-.895-2.682.895-2.534,2.236-1.937h1.788a23.988,23.988,0,0,0,1.788-3.428V-551.8l2.831-2.235h5.216l1.341-4.024,1.193-1.937,2.384-1.341h3.13l2.98,1.341,1.49,2.981,1.192,2.981h3.129l4.322,2.235,1.64,4.322,2.085,2.682v2.235l-2.085,1.788-.6,2.533,2.682,1.192v3.875a12.549,12.549,0,0,0-2.085.894c0,.149-.6.6-.6.6v3.577l2.682.745v5.216h-22.353v-4.62l2.384-.6v-4.322l-2.384-.6v-4.769Z" transform="translate(5607.514 563)" fill="#abe4ff" stroke="#707070" stroke-width="1"/>
  <g id="data-center">
    <path id="Path_547" data-name="Path 547" d="M41.754,22.108V14.695H39.446A9.528,9.528,0,0,0,30.441,8.04h-.62V7.564a7.569,7.569,0,0,0-15.138-.031,7.926,7.926,0,0,0-9.348,7.785q0,.3.023.6a5.515,5.515,0,0,0,.161,11.028h11.5v4.944h2.444v2.45H17.018v7.414H41.754V34.341H39.311v-2.45h2.444V24.478H39.311V22.108Zm-2.444-2.442H19.461V17.137H39.311ZM5.519,24.505a3.073,3.073,0,1,1,0-6.146h2.9a6.552,6.552,0,0,1-.645-3.042,5.477,5.477,0,0,1,7.642-5.025l1.706.736V7.564a5.125,5.125,0,0,1,10.25,0v2.918H30.44a7.054,7.054,0,0,1,6.394,4.213H17.018v7.414h2.444v2.369ZM39.311,39.312H19.461V36.783H39.311Zm-2.444-4.971H21.905v-2.45H36.867Zm2.444-4.892H19.461V26.92H39.311Zm-2.444-4.972H21.905V22.108H36.867Z" transform="translate(0 0)" fill="#1890cb"/>
  </g>
</svg>
