<svg xmlns="http://www.w3.org/2000/svg" width="30" height="30" viewBox="0 0 30 30">
  <g id="db-hardware-btn" transform="translate(318 83)">
    <g id="Group_842" data-name="Group 842" transform="translate(62 16)">
      <g id="Group_839" data-name="Group 839" transform="translate(89 -3)">
        <g id="Group_836" data-name="Group 836" transform="translate(68 -2)">
          <g id="Group_834" data-name="Group 834" transform="translate(7225 47)">
            <g id="Group_804" data-name="Group 804" transform="translate(0 23)">
              <g id="Group_798" data-name="Group 798" transform="translate(0 -1)">
                <rect id="Rectangle_220" data-name="Rectangle 220" width="30" height="30" transform="translate(-7762 -163)" fill="none"/>
              </g>
            </g>
          </g>
        </g>
      </g>
    </g>
    <g id="Group_841" data-name="Group 841" transform="translate(4186 -930)">
      <rect id="Rectangle_193" data-name="Rectangle 193" width="11" height="11" transform="translate(-4494 857)" fill="#abe4ff"/>
      <g id="hardware" transform="translate(-4498 853)">
        <path id="Path_377" data-name="Path 377" d="M18.406,6.531A.594.594,0,0,0,19,5.938V4.156a.594.594,0,0,0-1.187,0V5.344H16.031a2.378,2.378,0,0,0-2.375-2.375V1.188h1.188a.594.594,0,0,0,0-1.187H13.063a.594.594,0,0,0-.594.594V2.969H11.281V.594a.594.594,0,0,0-1.187,0V2.969H8.906V.594a.594.594,0,0,0-1.187,0V2.969H6.531V.594A.594.594,0,0,0,5.938,0H4.156a.594.594,0,0,0,0,1.188H5.344V2.969A2.378,2.378,0,0,0,2.969,5.344H1.188V4.156A.594.594,0,0,0,0,4.156V5.938a.594.594,0,0,0,.594.594H2.969V7.719H.594a.594.594,0,0,0,0,1.188H2.969v1.188H.594a.594.594,0,0,0,0,1.188H2.969v1.188H.594A.594.594,0,0,0,0,13.063v1.781a.594.594,0,0,0,1.188,0V13.656H2.969a2.378,2.378,0,0,0,2.375,2.375v1.781H4.156a.594.594,0,0,0,0,1.188H5.938a.594.594,0,0,0,.594-.594V16.031H7.719v2.375a.594.594,0,0,0,1.188,0V16.031h1.188v2.375a.594.594,0,0,0,1.188,0V16.031h1.188v2.375a.594.594,0,0,0,.594.594h1.781a.594.594,0,0,0,0-1.187H13.656V16.031a2.378,2.378,0,0,0,2.375-2.375h1.781v1.188a.594.594,0,0,0,1.188,0V13.063a.594.594,0,0,0-.594-.594H16.031V11.281h2.375a.594.594,0,0,0,0-1.187H16.031V8.906h2.375a.594.594,0,0,0,0-1.187H16.031V6.531Zm-3.562,7.125a1.189,1.189,0,0,1-1.187,1.188H5.344a1.189,1.189,0,0,1-1.187-1.187V5.344A1.189,1.189,0,0,1,5.344,4.156h8.313a1.189,1.189,0,0,1,1.188,1.188Z" fill="#1891cb"/>
        <path id="Path_379" data-name="Path 379" d="M224.594,227.563h2.375a.594.594,0,0,0,.594-.594v-2.375a.594.594,0,0,0-1.187,0v1.781h-1.781a.594.594,0,0,0,0,1.188Z" transform="translate(-215.688 -215.688)" fill="#1891cb"/>
      </g>
    </g>
  </g>
</svg>
