<svg xmlns="http://www.w3.org/2000/svg" width="41.022" height="41.023" viewBox="0 0 41.022 41.023">
  <g id="db-hardware-big-btn" transform="translate(4498 -853)">
    <rect id="Rectangle_193" data-name="Rectangle 193" width="24.218" height="24.218" transform="translate(-4490.294 861.549)" fill="#abe4ff"/>
    <g id="hardware" transform="translate(-4498 853)">
      <path id="Path_377" data-name="Path 377" d="M39.741,14.1a1.282,1.282,0,0,0,1.282-1.282V8.974a1.282,1.282,0,0,0-2.564,0v2.564H34.613A5.134,5.134,0,0,0,29.485,6.41V2.564h2.564a1.282,1.282,0,1,0,0-2.564H28.2a1.282,1.282,0,0,0-1.282,1.282V6.41H24.357V1.282a1.282,1.282,0,1,0-2.564,0V6.41H19.229V1.282a1.282,1.282,0,1,0-2.564,0V6.41H14.1V1.282A1.282,1.282,0,0,0,12.82,0H8.974a1.282,1.282,0,0,0,0,2.564h2.564V6.41A5.134,5.134,0,0,0,6.41,11.538H2.564V8.974A1.282,1.282,0,0,0,0,8.974V12.82A1.282,1.282,0,0,0,1.282,14.1H6.41v2.564H1.282a1.282,1.282,0,1,0,0,2.564H6.41v2.564H1.282a1.282,1.282,0,1,0,0,2.564H6.41v2.564H1.282A1.282,1.282,0,0,0,0,28.2v3.846a1.282,1.282,0,1,0,2.564,0V29.485H6.41a5.134,5.134,0,0,0,5.128,5.128v3.846H8.974a1.282,1.282,0,0,0,0,2.564H12.82A1.282,1.282,0,0,0,14.1,39.741V34.613h2.564v5.128a1.282,1.282,0,1,0,2.564,0V34.613h2.564v5.128a1.282,1.282,0,1,0,2.564,0V34.613h2.564v5.128A1.282,1.282,0,0,0,28.2,41.023h3.846a1.282,1.282,0,0,0,0-2.564H29.485V34.613a5.134,5.134,0,0,0,5.128-5.128h3.846v2.564a1.282,1.282,0,1,0,2.564,0V28.2a1.282,1.282,0,0,0-1.282-1.282H34.613V24.357h5.128a1.282,1.282,0,1,0,0-2.564H34.613V19.229h5.128a1.282,1.282,0,1,0,0-2.564H34.613V14.1ZM32.049,29.485a2.567,2.567,0,0,1-2.564,2.564H11.538a2.567,2.567,0,0,1-2.564-2.564V11.538a2.567,2.567,0,0,1,2.564-2.564H29.485a2.567,2.567,0,0,1,2.564,2.564Z" fill="#1891cb"/>
      <path id="Path_379" data-name="Path 379" d="M225.282,231.692h5.128a1.282,1.282,0,0,0,1.282-1.282v-5.128a1.282,1.282,0,1,0-2.564,0v3.846h-3.846a1.282,1.282,0,0,0,0,2.564Z" transform="translate(-206.053 -206.053)" fill="#1891cb"/>
    </g>
  </g>
</svg>
