<svg id="enterprise-big-btn" xmlns="http://www.w3.org/2000/svg" width="42.225" height="42.224" viewBox="0 0 42.225 42.224">
  <path id="Path_558" data-name="Path 558" d="M-5398-378.393v-9.067h5.487v-19.8h6.682v-5.965h1.431V-418h10.26v4.772h1.909v11.691l6.441,3.1v5.011l4.533,2.386v12.646Z" transform="translate(5400.386 419.193)" fill="#abe4ff"/>
  <g id="enterprise">
    <path id="Path_553" data-name="Path 553" d="M40.987,39.75h-.495V27.792a1.237,1.237,0,0,0-.684-1.106l-4.264-2.132V21.195a1.237,1.237,0,0,0-.684-1.106l-5.914-2.957V6.185A1.237,1.237,0,0,0,27.71,4.948H27.3V1.237A1.237,1.237,0,0,0,26.06,0h-9.9a1.237,1.237,0,0,0-1.237,1.237V4.948h-.412a1.237,1.237,0,0,0-1.237,1.237v4.7H7.917A1.237,1.237,0,0,0,6.68,12.123V30.266H2.969A1.237,1.237,0,0,0,1.732,31.5V39.75H1.237a1.237,1.237,0,1,0,0,2.474h39.75a1.237,1.237,0,1,0,0-2.474ZM17.4,2.474h7.422V4.948H17.4ZM15.752,7.422H26.473v8.472l-1.509-.754a1.237,1.237,0,0,0-1.79,1.106v23.5H19.051V12.123a1.237,1.237,0,0,0-1.237-1.237H15.752Zm-6.6,5.938h7.422V39.75H14.1V31.5a1.237,1.237,0,0,0-1.237-1.237H9.154Zm0,26.39V36.864a1.237,1.237,0,0,0-2.474,0V39.75H4.206V32.74h7.422v7.01Zm16.494-21.5,7.422,3.711V39.75H25.648Zm9.9,21.5V27.32l2.474,1.237V39.75Z" transform="translate(0 0)" fill="#1890cb"/>
    <path id="Path_554" data-name="Path 554" d="M342.237,292A1.237,1.237,0,0,0,341,293.237v2.474a1.237,1.237,0,0,0,2.474,0v-2.474A1.237,1.237,0,0,0,342.237,292Z" transform="translate(-312.878 -267.919)" fill="#1890cb"/>
    <path id="Path_555" data-name="Path 555" d="M142.237,196.948a1.237,1.237,0,0,0,1.237-1.237v-2.474a1.237,1.237,0,0,0-2.474,0v2.474A1.237,1.237,0,0,0,142.237,196.948Z" transform="translate(-129.372 -176.166)" fill="#1890cb"/>
    <path id="Path_556" data-name="Path 556" d="M143.474,285.711v-2.474a1.237,1.237,0,1,0-2.474,0v2.474a1.237,1.237,0,1,0,2.474,0Z" transform="translate(-129.372 -258.744)" fill="#1890cb"/>
    <path id="Path_557" data-name="Path 557" d="M342.237,382A1.237,1.237,0,0,0,341,383.237v2.474a1.237,1.237,0,1,0,2.474,0v-2.474A1.237,1.237,0,0,0,342.237,382Z" transform="translate(-312.878 -350.497)" fill="#1890cb"/>
  </g>
</svg>
