<svg id="lb-software-big-btn" xmlns="http://www.w3.org/2000/svg" width="39.849" height="41.754" viewBox="0 0 39.849 41.754">
  <path id="Path_533" data-name="Path 533" d="M-5999.125-330.182l-1.16-3.77-4.059-3.189-4.641,1.74-3.188-6.959,3.188-4.639v-4.929l-4.349-2.9,4.349-7.829,4.641,1.74,4.059-1.74,1.16-5.509h8.408l1.741,5.509,5.219,1.74,3.479-1.74,4.351,7.829-2.611,2.9v6.379l2.611,3.19-4.351,6.959-3.479-1.74-5.219,3.189-1.741,5.219Z" transform="translate(6014.494 369.617)" fill="#abe4ff"/>
  <g id="application" transform="translate(0 0)">
    <path id="Path_529" data-name="Path 529" d="M23.365,41.754H17.579a2.983,2.983,0,0,1-2.925-2.347l-.734-3.259a15.981,15.981,0,0,1-3.4-1.973l-3.17,1a3.023,3.023,0,0,1-3.521-1.371L.945,28.816a3.042,3.042,0,0,1,.56-3.714l2.457-2.258a17.277,17.277,0,0,1,0-3.932L1.515,16.663a3.037,3.037,0,0,1-.579-3.707l2.9-5.019A3.012,3.012,0,0,1,7.347,6.578l3.173,1a16.024,16.024,0,0,1,3.4-1.973l.734-3.26A2.983,2.983,0,0,1,17.579,0h5.786A2.983,2.983,0,0,1,26.29,2.347l.734,3.259a15.981,15.981,0,0,1,3.4,1.973l3.17-1a3.019,3.019,0,0,1,3.521,1.371L40,12.939a3.042,3.042,0,0,1-.56,3.714l-2.457,2.258a17.412,17.412,0,0,1,0,3.932l2.446,2.248.01.01a3.032,3.032,0,0,1,.569,3.7l-2.9,5.019A3.013,3.013,0,0,1,33.6,35.176l-3.175-1a16.024,16.024,0,0,1-3.4,1.973l-.734,3.26a2.98,2.98,0,0,1-2.923,2.347ZM10.788,31.418a1.313,1.313,0,0,1,.832.3,13.387,13.387,0,0,0,3.876,2.25,1.307,1.307,0,0,1,.821.938l.886,3.932a.4.4,0,0,0,.379.31h5.786a.4.4,0,0,0,.379-.308l.886-3.932a1.3,1.3,0,0,1,.821-.938,13.426,13.426,0,0,0,3.876-2.25,1.3,1.3,0,0,1,1.223-.238l3.829,1.209a.388.388,0,0,0,.461-.162l2.9-5.017a.423.423,0,0,0-.085-.5l-2.937-2.7a1.3,1.3,0,0,1-.405-1.155,15.392,15.392,0,0,0,.174-2.274,15.178,15.178,0,0,0-.174-2.274,1.306,1.306,0,0,1,.405-1.155l2.944-2.707a.423.423,0,0,0,.07-.511L34.853,9.242a.4.4,0,0,0-.473-.174l-3.824,1.207a1.3,1.3,0,0,1-1.223-.238,13.387,13.387,0,0,0-3.876-2.25,1.307,1.307,0,0,1-.821-.938L23.75,2.918a.407.407,0,0,0-.384-.308H17.579a.4.4,0,0,0-.379.308l-.886,3.934a1.3,1.3,0,0,1-.819.938,13.387,13.387,0,0,0-3.876,2.25,1.3,1.3,0,0,1-1.223.238L6.566,9.068a.391.391,0,0,0-.461.162L3.2,14.245a.424.424,0,0,0,.089.506l2.935,2.7A1.3,1.3,0,0,1,6.632,18.6a15.393,15.393,0,0,0-.174,2.274,15.178,15.178,0,0,0,.174,2.274,1.306,1.306,0,0,1-.405,1.155L3.283,27.013a.423.423,0,0,0-.07.511L6.1,32.513a.391.391,0,0,0,.473.174L10.4,31.479a1.27,1.27,0,0,1,.393-.061Z" transform="translate(-0.548 0)" fill="#1890cb"/>
    <path id="Path_530" data-name="Path 530" d="M11.807,21.918a1.3,1.3,0,0,1-1.274-1.6l2.61-11.308a1.3,1.3,0,1,1,2.542.585l-2.61,11.308A1.3,1.3,0,0,1,11.807,21.918Z" transform="translate(6.814 5.918)" fill="#1890cb"/>
    <path id="Path_531" data-name="Path 531" d="M15.805,19.438a1.3,1.3,0,0,1-.873-2.276L18.2,14.219l-3.273-2.944a1.306,1.306,0,0,1,1.747-1.942l4.349,3.914a1.308,1.308,0,0,1,0,1.942L16.679,19.1A1.3,1.3,0,0,1,15.805,19.438Z" transform="translate(9.773 6.658)" fill="#1890cb"/>
    <path id="Path_532" data-name="Path 532" d="M11.154,19.439a1.3,1.3,0,0,1-.873-.334L5.931,15.19a1.308,1.308,0,0,1,0-1.942l4.349-3.914a1.306,1.306,0,1,1,1.747,1.942L8.755,14.22l3.273,2.944a1.3,1.3,0,0,1-.873,2.276Z" transform="translate(3.116 6.658)" fill="#1890cb"/>
  </g>
</svg>
