<svg xmlns="http://www.w3.org/2000/svg" width="35.281" height="41.023" viewBox="0 0 35.281 41.023">
  <g id="middleware-big-btn" transform="translate(-32.55)">
    <g id="Group_657" data-name="Group 657" transform="translate(34.146 0.891)">
      <circle id="Ellipse_54" data-name="Ellipse 54" cx="2.646" cy="2.646" r="2.646" transform="translate(27.51 29.565)" fill="#abe4ff"/>
      <path id="Path_352" data-name="Path 352" d="M82.729,25.712a5.963,5.963,0,0,1-5.962,5.962H74.835a8.484,8.484,0,1,0-16.626-2.381,8.383,8.383,0,0,0,.335,2.373l-.026.009h-1.9a5.96,5.96,0,0,1-2.478-11.387,7.135,7.135,0,0,1,6.774-5.072,7.578,7.578,0,0,1,1.438.132A8.974,8.974,0,0,1,79.492,19.07a12.977,12.977,0,0,1-.088,1.305A5.944,5.944,0,0,1,82.729,25.712Z" transform="translate(-50.65 -10.1)" fill="#abe4ff"/>
    </g>
    <path id="Path_353" data-name="Path 353" d="M151.982,144.786a8.466,8.466,0,1,1,1.438-4.7,8.141,8.141,0,0,1-.344,2.381A8.744,8.744,0,0,1,151.982,144.786Z" transform="translate(-94.736 -119.993)" fill="#abe4ff"/>
    <g id="Group_658" data-name="Group 658" transform="translate(33.432 30.456)">
      <circle id="Ellipse_55" data-name="Ellipse 55" cx="2.646" cy="2.646" r="2.646" transform="translate(14.112 4.41)" fill="#abe4ff"/>
      <circle id="Ellipse_56" data-name="Ellipse 56" cx="2.646" cy="2.646" r="2.646" fill="#abe4ff"/>
    </g>
    <path id="Path_354" data-name="Path 354" d="M64.3,29.592a3.469,3.469,0,0,0-3.413,2.664h-1a1.8,1.8,0,0,1-1.764-1.8V25.049a8.725,8.725,0,0,0,.838-1.7h1.288a6.845,6.845,0,0,0,3.581-12.683,8.088,8.088,0,0,0,.035-.811A9.851,9.851,0,0,0,48.629,1.605,9.964,9.964,0,0,0,45.357,5.16a8.189,8.189,0,0,0-.935-.053A7.843,7.843,0,0,0,39.641,6.73a8.235,8.235,0,0,0-2.717,3.7,6.889,6.889,0,0,0-1.649,1.217,6.842,6.842,0,0,0,4.842,11.687h1.3a8.725,8.725,0,0,0,.838,1.7v5.407a1.8,1.8,0,0,1-1.764,1.8h-1a3.477,3.477,0,0,0-3.413-2.664A3.528,3.528,0,1,0,39.491,34h1a3.557,3.557,0,0,0,3.528-3.563V27.1c.168.141.335.282.5.415a9.253,9.253,0,0,0,4.789,1.87v4.692a3.528,3.528,0,1,0,1.764,0V29.389A9.31,9.31,0,0,0,56.364,27.1v3.334A3.557,3.557,0,0,0,59.892,34h1a3.527,3.527,0,1,0,3.413-4.41ZM36.078,34.866A1.764,1.764,0,1,1,37.842,33.1,1.769,1.769,0,0,1,36.078,34.866ZM35.037,16.5a5.037,5.037,0,0,1,1.491-3.59,5.21,5.21,0,0,1,1.5-1.032l.353-.168.115-.37A6.281,6.281,0,0,1,44.422,6.9a7.054,7.054,0,0,1,1.261.115l.679.141.291-.626A8.331,8.331,0,0,1,49.6,3.1,8.077,8.077,0,0,1,62.106,9.87c0,.362-.035.706-.071,1.1l-.071.714.547.273a5.073,5.073,0,0,1-2.249,9.623h-.829a9.818,9.818,0,0,0,.123-1.5,9.367,9.367,0,0,0-18.734,0,9.818,9.818,0,0,0,.123,1.5h-.829A5.082,5.082,0,0,1,35.037,16.5Zm16.917,21.01a1.764,1.764,0,1,1-1.764-1.764A1.769,1.769,0,0,1,51.954,37.512ZM50.19,27.686A7.629,7.629,0,0,1,42.9,22.218h0a7.5,7.5,0,0,1-.3-2.126,7.6,7.6,0,1,1,15.206,0,7.525,7.525,0,0,1-.309,2.134,7.344,7.344,0,0,1-.97,2.082A7.653,7.653,0,0,1,50.19,27.686ZM64.3,34.866A1.764,1.764,0,1,1,66.067,33.1,1.769,1.769,0,0,1,64.3,34.866Z" fill="#1891cb"/>
  </g>
</svg>
