<svg xmlns="http://www.w3.org/2000/svg" width="30" height="30" viewBox="0 0 30 30">
  <g id="network-btn" transform="translate(219 85)">
    <g id="Group_848" data-name="Group 848" transform="translate(64 -3)">
      <g id="Group_844" data-name="Group 844" transform="translate(35 1)">
        <g id="Group_842" data-name="Group 842" transform="translate(62 16)">
          <g id="Group_839" data-name="Group 839" transform="translate(89 -3)">
            <g id="Group_836" data-name="Group 836" transform="translate(68 -2)">
              <g id="Group_834" data-name="Group 834" transform="translate(7225 47)">
                <g id="Group_804" data-name="Group 804" transform="translate(0 23)">
                  <g id="Group_798" data-name="Group 798" transform="translate(0 -1)">
                    <rect id="Rectangle_220" data-name="Rectangle 220" width="30" height="30" transform="translate(-7762 -163)" fill="none"/>
                  </g>
                </g>
              </g>
            </g>
          </g>
        </g>
      </g>
    </g>
    <g id="share" transform="translate(-215 -83.3)">
      <g id="Group_661" data-name="Group 661" transform="translate(14.231 3.8)">
        <path id="Path_366" data-name="Path 366" d="M285,17.221a3.194,3.194,0,0,1-.1-.789,3.127,3.127,0,1,1,.1.789Z" transform="translate(-284.9 -13.3)" fill="#abe4ff"/>
        <path id="Path_367" data-name="Path 367" d="M285,284.043a3.136,3.136,0,1,1-.1.789A3.194,3.194,0,0,1,285,284.043Z" transform="translate(-284.9 -268.293)" fill="#abe4ff"/>
      </g>
      <path id="Path_368" data-name="Path 368" d="M15.944,149.063a3.094,3.094,0,0,1,.42,1.568,3.128,3.128,0,1,1-.42-1.568Z" transform="translate(-9.596 -136.997)" fill="#abe4ff"/>
      <path id="Path_369" data-name="Path 369" d="M3.636,17.266a3.647,3.647,0,0,0,2.872-1.409l7.263,3.951a3.722,3.722,0,0,0-.04.529,3.622,3.622,0,1,0,.325-1.508L7,14.993a3.619,3.619,0,0,0,0-2.717L14.061,8.44a3.638,3.638,0,1,0-.325-1.508,3.778,3.778,0,0,0,.04.529L6.5,11.412a3.632,3.632,0,1,0-2.867,5.854Zm11.179,2.408a2.633,2.633,0,1,1-.085.664A2.691,2.691,0,0,1,14.815,19.674ZM17.363,4.3a2.632,2.632,0,1,1-2.547,3.3,2.691,2.691,0,0,1-.085-.664A2.636,2.636,0,0,1,17.363,4.3ZM3.636,11a2.622,2.622,0,0,1,2.627,2.632,2.462,2.462,0,0,1-.36,1.319h0A2.629,2.629,0,1,1,3.636,11Z" transform="translate(0 0)" fill="#1891cb"/>
    </g>
  </g>
</svg>
