<svg xmlns="http://www.w3.org/2000/svg" width="37.639" height="37.064" viewBox="0 0 37.639 37.064">
  <g id="network-big-btn" transform="translate(6146.5 345.5)">
    <g id="Group_661" data-name="Group 661" transform="translate(-6121.17 -344.128)">
      <path id="Path_366" data-name="Path 366" d="M285.074,20.141a5.571,5.571,0,0,1-.174-1.377,5.456,5.456,0,1,1,.174,1.377Z" transform="translate(-284.9 -13.3)" fill="#abe4ff"/>
      <path id="Path_367" data-name="Path 367" d="M285.074,285.787a5.471,5.471,0,1,1-.174,1.377A5.571,5.571,0,0,1,285.074,285.787Z" transform="translate(-284.9 -258.308)" fill="#abe4ff" stroke="#1891cb" stroke-width="1"/>
    </g>
    <path id="Path_368" data-name="Path 368" d="M20.3,150.228a5.4,5.4,0,0,1,.732,2.737,5.458,5.458,0,1,1-.732-2.737Z" transform="translate(-6155.22 -479.933)" fill="#abe4ff"/>
    <path id="Path_369" data-name="Path 369" d="M6.345,27.668a6.364,6.364,0,0,0,5.011-2.458L24.028,32.1a6.494,6.494,0,0,0-.07.924,6.319,6.319,0,1,0,.566-2.632L12.219,23.7a6.314,6.314,0,0,0,0-4.741l12.315-6.693a6.347,6.347,0,1,0-.566-2.632,6.592,6.592,0,0,0,.07.924L11.347,17.454a6.336,6.336,0,1,0-5,10.214Zm19.5,4.2a4.595,4.595,0,1,1-.148,1.159A4.7,4.7,0,0,1,25.849,31.868ZM30.294,5.043A4.593,4.593,0,1,1,25.849,10.8,4.7,4.7,0,0,1,25.7,9.636,4.6,4.6,0,0,1,30.294,5.043ZM6.345,16.739a4.575,4.575,0,0,1,4.584,4.593,4.3,4.3,0,0,1-.627,2.3h0a4.586,4.586,0,1,1-3.957-6.894Z" transform="translate(-6146 -348.3)" fill="#1891cb" stroke="#1fa5e6" stroke-width="1"/>
  </g>
</svg>
