<svg xmlns="http://www.w3.org/2000/svg" width="30" height="30" viewBox="0 0 30 30">
  <g id="mail-drag-btn" transform="translate(-8435 122)">
    <g id="mail" transform="translate(8442 -112)">
      <g id="Group_692" data-name="Group 692" transform="translate(11.028 2.109)">
        <g id="Group_691" data-name="Group 691">
          <path id="Path_397" data-name="Path 397" d="M339.392,148.591,345,152.137V144.9Z" transform="translate(-339.392 -144.896)" fill="#1fa5e6"/>
        </g>
      </g>
      <g id="Group_694" data-name="Group 694" transform="translate(0 2.109)">
        <g id="Group_693" data-name="Group 693">
          <path id="Path_398" data-name="Path 398" d="M0,144.9v7.241l5.609-3.546Z" transform="translate(0 -144.896)" fill="#1fa5e6"/>
        </g>
      </g>
      <g id="Group_696" data-name="Group 696" transform="translate(0.031)">
        <g id="Group_695" data-name="Group 695">
          <path id="Path_399" data-name="Path 399" d="M16.525,80H1.969a1.027,1.027,0,0,0-1.009.885l8.287,5.46,8.287-5.46A1.027,1.027,0,0,0,16.525,80Z" transform="translate(-0.96 -80)" fill="#1fa5e6"/>
        </g>
      </g>
      <g id="Group_698" data-name="Group 698" transform="translate(0.033 6.431)">
        <g id="Group_697" data-name="Group 697">
          <path id="Path_400" data-name="Path 400" d="M11.066,277.921l-1.471.969a.522.522,0,0,1-.572,0l-1.471-.97-6.528,4.129a1.025,1.025,0,0,0,1.006.878H16.587a1.025,1.025,0,0,0,1.006-.878Z" transform="translate(-1.024 -277.92)" fill="#1fa5e6"/>
        </g>
      </g>
    </g>
    <g id="calender-drag-btn" transform="translate(23 0)">
      <g id="numeric-drag-btn" transform="translate(32)">
        <g id="date-picker-drag-btn" transform="translate(62 -1)">
          <g id="double-drag-btn" transform="translate(39 -2)">
            <g id="single-drag-button" transform="translate(38 -1)">
              <g id="drop-field-btn" transform="translate(-70 12)">
                <g id="Group_867" data-name="Group 867" transform="translate(8406 -52)">
                  <g id="Group_852" data-name="Group 852" transform="translate(19 20)">
                    <g id="Group_850" data-name="Group 850" transform="translate(105 -13)">
                      <g id="Group_848" data-name="Group 848" transform="translate(64 -3)">
                        <g id="Group_844" data-name="Group 844" transform="translate(35 1)">
                          <g id="Group_842" data-name="Group 842" transform="translate(62 16)">
                            <g id="Group_839" data-name="Group 839" transform="translate(89 -3)">
                              <g id="Group_836" data-name="Group 836" transform="translate(68 -2)">
                                <g id="Group_834" data-name="Group 834" transform="translate(7225 47)">
                                  <g id="Group_804" data-name="Group 804" transform="translate(0 23)">
                                    <g id="Group_798" data-name="Group 798" transform="translate(0 -1)">
                                      <rect id="Rectangle_220" data-name="Rectangle 220" width="30" height="30" transform="translate(-7762 -163)" fill="none"/>
                                    </g>
                                  </g>
                                </g>
                              </g>
                            </g>
                          </g>
                        </g>
                      </g>
                    </g>
                  </g>
                </g>
              </g>
            </g>
          </g>
        </g>
      </g>
    </g>
  </g>
</svg>
