<svg xmlns="http://www.w3.org/2000/svg" width="30" height="30" viewBox="0 0 30 30">
  <g id="si-ci-details-black-btn" transform="translate(7183 215)">
    <g id="gear" transform="translate(-7178 -216.097)">
      <g id="Group_470" data-name="Group 470" transform="translate(0 6.097)">
        <g id="Group_469" data-name="Group 469">
          <path id="Path_277" data-name="Path 277" d="M18.161,15.355a7.846,7.846,0,0,0-.494-2.182l1.847-1.48-3-3.749-1.836,1.47A7.841,7.841,0,0,0,12.63,8.43V6.1h-4.8V8.446A7.834,7.834,0,0,0,5.7,9.508L3.84,8.066.893,11.858l1.888,1.467a7.859,7.859,0,0,0-.448,2.18L0,16.064l1.117,4.671,1.641-.393,2.5-2.5a5.324,5.324,0,1,1,3.321,3.213L5.02,24.616l3.167,1.493L9.24,23.874a7.952,7.952,0,0,0,2.167-.018l1.079,2.205L16.8,23.95l-1.076-2.2a7.893,7.893,0,0,0,1.364-1.715l2.363.529L20.5,15.878Z" transform="translate(0 -6.097)"/>
        </g>
      </g>
      <g id="Group_472" data-name="Group 472" transform="translate(0.893 12.249)">
        <g id="Group_471" data-name="Group 471">
          <path id="Path_278" data-name="Path 278" d="M35.073,162.123l-.337-.848L32.708,163.3l-.911-.911,2.028-2.028-.848-.337a3.756,3.756,0,0,0-4.644,5.345L22.3,171.405l1.569,1.569,6.088-6.088A3.753,3.753,0,0,0,35.073,162.123Z" transform="translate(-22.301 -159.748)"/>
        </g>
      </g>
    </g>
    <g id="Group_857" data-name="Group 857" transform="translate(-74 21)">
      <g id="Group_855" data-name="Group 855" transform="translate(-79 -6)">
        <g id="Group_853" data-name="Group 853" transform="translate(-6650 -131)">
          <g id="Group_839" data-name="Group 839" transform="translate(89 -3)">
            <g id="Group_836" data-name="Group 836" transform="translate(68 -2)">
              <g id="Group_834" data-name="Group 834" transform="translate(7225 47)">
                <g id="Group_804" data-name="Group 804" transform="translate(0 23)">
                  <g id="Group_798" data-name="Group 798" transform="translate(0 -1)">
                    <rect id="Rectangle_220" data-name="Rectangle 220" width="30" height="30" transform="translate(-7762 -163)" fill="none"/>
                  </g>
                </g>
              </g>
            </g>
          </g>
        </g>
      </g>
    </g>
  </g>
</svg>
