<svg xmlns="http://www.w3.org/2000/svg" width="30" height="30" viewBox="0 0 30 30">
  <g id="edit-btn" transform="translate(7404.001 139)">
    <g id="Group_818" data-name="Group 818" transform="translate(-49 -19)">
      <g id="Group_817" data-name="Group 817" transform="translate(165 21)">
        <g id="Group_812" data-name="Group 812" transform="translate(-40)">
          <g id="Group_811" data-name="Group 811" transform="translate(17 -9)">
            <g id="Group_809" data-name="Group 809" transform="translate(104 3)">
              <g id="Group_807" data-name="Group 807" transform="translate(42 17)">
                <g id="Group_805" data-name="Group 805" transform="translate(41 13)">
                  <g id="Group_801" data-name="Group 801" transform="translate(78 -2)">
                    <rect id="Rectangle_220" data-name="Rectangle 220" width="30" height="30" transform="translate(-7762 -163)" fill="none"/>
                  </g>
                </g>
              </g>
            </g>
          </g>
        </g>
      </g>
      <g id="Group_816" data-name="Group 816" transform="translate(-7348 -113)">
        <g id="edit">
          <g id="Group_33" data-name="Group 33" transform="translate(0 10.795)">
            <g id="Group_32" data-name="Group 32">
              <path id="Path_31" data-name="Path 31" d="M1.565,353.28,0,358.13l4.85-1.565Z" transform="translate(0 -353.28)" fill="#1fa5e6"/>
            </g>
          </g>
          <g id="Group_35" data-name="Group 35" transform="translate(2.663 2.038)">
            <g id="Group_34" data-name="Group 34" transform="translate(0 0)">
              <rect id="Rectangle_14" data-name="Rectangle 14" width="10.795" height="4.694" transform="translate(0 7.633) rotate(-45)" fill="#1fa5e6"/>
            </g>
          </g>
          <g id="Group_37" data-name="Group 37" transform="translate(11.421)">
            <g id="Group_36" data-name="Group 36">
              <path id="Path_32" data-name="Path 32" d="M377.75,2.425l-2.19-2.19a.756.756,0,0,0-1.1,0l-.7.7,3.286,3.286.7-.7A.756.756,0,0,0,377.75,2.425Z" transform="translate(-373.76 0)" fill="#1fa5e6"/>
            </g>
          </g>
        </g>
      </g>
    </g>
  </g>
</svg>
